<svg xmlns="http://www.w3.org/2000/svg" xmlns:xlink="http://www.w3.org/1999/xlink" width="500" zoomAndPan="magnify" viewBox="0 0 375 374.999991" height="500" preserveAspectRatio="xMidYMid meet" version="1.0"><path fill="#003366" d="M 344.457031 166.539062 C 342.789062 166.539062 341.335938 165.335938 341.074219 163.636719 C 330.71875 96.414062 278.582031 44.28125 211.363281 33.925781 C 209.488281 33.632812 208.199219 31.890625 208.492188 30.015625 C 208.769531 28.140625 210.511719 26.851562 212.402344 27.144531 C 246.589844 32.417969 277.644531 48.179688 302.226562 72.773438 C 326.804688 97.351562 342.582031 128.40625 347.855469 162.582031 C 348.148438 164.457031 346.859375 166.214844 344.984375 166.507812 C 344.808594 166.523438 344.632812 166.539062 344.457031 166.539062 " fill-opacity="1" fill-rule="nonzero"/><path fill="#003366" d="M 30.542969 166.539062 C 30.367188 166.539062 30.191406 166.539062 30.015625 166.507812 C 28.140625 166.214844 26.867188 164.457031 27.144531 162.597656 C 32.417969 128.40625 48.195312 97.351562 72.773438 72.773438 C 97.351562 48.179688 128.40625 32.417969 162.597656 27.144531 C 164.472656 26.851562 166.230469 28.140625 166.507812 30.015625 C 166.800781 31.890625 165.511719 33.632812 163.636719 33.925781 C 96.417969 44.28125 44.28125 96.414062 33.925781 163.636719 C 33.664062 165.335938 32.210938 166.539062 30.542969 166.539062 " fill-opacity="1" fill-rule="nonzero"/><path fill="#003366" d="M 163.125 347.898438 C 162.949219 347.898438 162.773438 347.886719 162.597656 347.855469 C 128.40625 342.582031 97.351562 326.804688 72.773438 302.226562 C 48.179688 277.644531 32.417969 246.589844 27.144531 212.402344 C 26.851562 210.527344 28.140625 208.769531 30.015625 208.492188 C 31.890625 208.199219 33.632812 209.488281 33.925781 211.347656 C 44.28125 278.582031 96.417969 330.71875 163.636719 341.074219 C 165.511719 341.367188 166.800781 343.109375 166.507812 344.984375 C 166.246094 346.683594 164.78125 347.898438 163.125 347.898438 " fill-opacity="1" fill-rule="nonzero"/><path fill="#003366" d="M 211.875 347.898438 C 210.203125 347.898438 208.738281 346.683594 208.476562 344.984375 C 208.199219 343.109375 209.472656 341.367188 211.347656 341.074219 C 278.582031 330.71875 330.71875 278.582031 341.074219 211.363281 C 341.367188 209.488281 343.09375 208.210938 344.984375 208.492188 C 346.859375 208.785156 348.148438 210.542969 347.855469 212.402344 C 342.582031 246.589844 326.804688 277.644531 302.226562 302.226562 C 277.644531 326.820312 246.589844 342.582031 212.402344 347.855469 C 212.226562 347.886719 212.050781 347.898438 211.875 347.898438 " fill-opacity="1" fill-rule="nonzero"/><path fill="#003366" d="M 18.675781 187.5 L 153.71875 218.714844 C 154.996094 219.007812 155.992188 220.003906 156.285156 221.277344 L 187.5 356.324219 L 218.714844 221.277344 C 219.007812 220.003906 220.003906 219.007812 221.292969 218.714844 L 356.335938 187.5 L 221.292969 156.285156 C 220.003906 155.992188 219.007812 154.996094 218.714844 153.707031 L 187.5 18.660156 L 156.285156 153.707031 C 155.992188 154.996094 154.996094 155.992188 153.71875 156.285156 Z M 187.5 375 C 185.902344 375 184.511719 373.902344 184.160156 372.347656 L 150.085938 224.910156 L 2.667969 190.839844 C 1.097656 190.488281 0 189.097656 0 187.5 C 0 185.902344 1.097656 184.511719 2.667969 184.160156 L 150.085938 150.085938 L 184.160156 2.667969 C 184.511719 1.097656 185.902344 0 187.5 0 C 189.097656 0 190.488281 1.097656 190.839844 2.667969 L 224.910156 150.085938 L 372.332031 184.160156 C 373.902344 184.511719 375 185.902344 375 187.5 C 375 189.097656 373.902344 190.488281 372.332031 190.839844 L 224.910156 224.910156 L 190.839844 372.347656 C 190.488281 373.902344 189.097656 375 187.5 375 " fill-opacity="1" fill-rule="nonzero"/><path fill="rgb(0%, 39.99939%, 19.999695%)" d="M 167.269531 207.730469 L 79.761719 187.5 L 167.269531 167.269531 L 187.5 79.761719 L 207.730469 167.269531 L 295.238281 187.5 L 207.730469 207.730469 L 187.5 295.238281 L 167.269531 207.730469 " fill-opacity="1" fill-rule="nonzero"/><path fill="#003366" d="M 278.421875 281.863281 C 277.851562 281.863281 277.28125 281.71875 276.753906 281.425781 L 231.914062 256.289062 C 230.273438 255.367188 229.671875 253.269531 230.609375 251.617188 C 231.53125 249.960938 233.628906 249.375 235.269531 250.296875 L 269.472656 269.472656 L 250.296875 235.269531 C 249.375 233.628906 249.960938 231.53125 251.617188 230.609375 C 253.269531 229.671875 255.367188 230.273438 256.289062 231.914062 L 281.425781 276.753906 C 282.171875 278.085938 281.9375 279.769531 280.855469 280.855469 C 280.195312 281.511719 279.316406 281.863281 278.421875 281.863281 " fill-opacity="1" fill-rule="nonzero"/><path fill="#003366" d="M 96.578125 281.863281 C 95.683594 281.863281 94.804688 281.511719 94.144531 280.855469 C 93.0625 279.769531 92.828125 278.085938 93.574219 276.753906 L 118.695312 231.929688 C 119.632812 230.273438 121.714844 229.6875 123.367188 230.609375 C 125.023438 231.546875 125.609375 233.628906 124.6875 235.28125 L 105.527344 269.472656 L 139.714844 250.3125 C 141.371094 249.390625 143.453125 249.976562 144.390625 251.628906 C 145.3125 253.285156 144.726562 255.367188 143.070312 256.304688 L 98.246094 281.425781 C 97.71875 281.71875 97.148438 281.863281 96.578125 281.863281 " fill-opacity="1" fill-rule="nonzero"/><path fill="#003366" d="M 121.699219 144.8125 C 120.496094 144.8125 119.324219 144.183594 118.695312 143.054688 L 93.574219 98.246094 C 92.828125 96.898438 93.0625 95.230469 94.144531 94.144531 C 95.230469 93.0625 96.898438 92.828125 98.246094 93.574219 L 143.070312 118.695312 C 144.710938 119.617188 145.296875 121.714844 144.375 123.367188 C 143.453125 125.023438 141.355469 125.609375 139.703125 124.6875 L 105.527344 105.527344 L 124.6875 139.703125 C 125.609375 141.355469 125.023438 143.453125 123.367188 144.375 C 122.839844 144.683594 122.253906 144.8125 121.699219 144.8125 " fill-opacity="1" fill-rule="nonzero"/><path fill="#003366" d="M 253.300781 144.8125 C 252.730469 144.8125 252.15625 144.683594 251.628906 144.390625 C 249.976562 143.453125 249.390625 141.371094 250.3125 139.714844 L 269.472656 105.527344 L 235.28125 124.6875 C 233.628906 125.609375 231.546875 125.023438 230.609375 123.367188 C 229.6875 121.714844 230.273438 119.632812 231.929688 118.695312 L 276.753906 93.574219 C 278.101562 92.828125 279.769531 93.0625 280.855469 94.144531 C 281.9375 95.230469 282.171875 96.898438 281.425781 98.246094 L 256.304688 143.070312 C 255.671875 144.183594 254.5 144.8125 253.300781 144.8125 " fill-opacity="1" fill-rule="nonzero"/></svg>