<?xml version="1.0" encoding="utf-8"?>
<!-- Generator: Adobe Illustrator 26.0.0, SVG Export Plug-In . SVG Version: 6.00 Build 0)  -->
<svg version="1.1" id="Camada_1" xmlns="http://www.w3.org/2000/svg" xmlns:xlink="http://www.w3.org/1999/xlink" x="0px" y="0px"
	 viewBox="0 0 663 631" style="enable-background:new 0 0 663 631;" xml:space="preserve">
<style type="text/css">
	.st0{clip-path:url(#SVGID_00000041267090268019151690000009601645084338107553_);}
	.st1{fill:none;stroke:#C5C5C5;stroke-width:1.9165;stroke-miterlimit:10;}
	.st2{fill:#006633;}
	.st3{fill:#003366;stroke:#F5F5F5;}
	.st4{fill:none;stroke:#C5C5C5;stroke-width:1.4297;stroke-miterlimit:10;}
	.st5{fill:#1C85E8;}
	.st6{fill:url(#SVGID_00000094605657241998355300000007417941368527524782_);}
	.st7{fill:#FFFFFF;}
	.st8{fill:url(#SVGID_00000130635448446166702980000013716850977460987563_);}
	.st9{fill:url(#SVGID_00000039130780634440173830000000299347586622133376_);}
	.st10{fill:none;stroke:#006633;stroke-width:11.6898;stroke-miterlimit:10;}
	.st11{fill:none;stroke:#FFFFFF;stroke-width:11.6898;stroke-linecap:round;stroke-miterlimit:10;}
	.st12{fill:none;stroke:#FFFFFF;stroke-width:5.9837;stroke-linecap:round;stroke-miterlimit:10;}
	
		.st13{opacity:0.4;fill:none;stroke:#FFFFFF;stroke-width:5.9837;stroke-linecap:round;stroke-miterlimit:10;enable-background:new    ;}
	.st14{fill:#003A7A;}
	.st15{fill:url(#SVGID_00000124143591151297208060000010066795479292581295_);}
	.st16{fill:#FFCCB3;}
	.st17{fill:#FCBA9F;}
	.st18{fill:#FFD3B3;}
	.st19{fill:none;stroke:#FFFFFF;stroke-width:7.5651;stroke-linecap:round;stroke-miterlimit:10;}
	.st20{fill:none;stroke:#FFFFFF;stroke-width:11.9991;stroke-linecap:round;stroke-miterlimit:10;}
	
		.st21{opacity:0.4;fill:none;stroke:#FFFFFF;stroke-width:11.9991;stroke-linecap:round;stroke-miterlimit:10;enable-background:new    ;}
	.st22{fill:none;stroke:#FF967C;stroke-width:3;stroke-linecap:round;}
	.st23{fill:url(#SVGID_00000056415661922858614560000007382724047210396556_);}
	.st24{fill:none;stroke:#FFFFFF;stroke-width:12;stroke-linecap:round;stroke-miterlimit:10;}
	
		.st25{opacity:0.4;fill:none;stroke:#FFFFFF;stroke-width:12;stroke-linecap:round;stroke-miterlimit:10;enable-background:new    ;}
	.st26{fill:#1D1D1D;}
	.st27{fill:none;stroke:#006633;stroke-width:11.6898;stroke-linecap:round;stroke-miterlimit:10;}
</style>
<g>
	<defs>
		<rect id="SVGID_1_" x="-48" width="907" height="656"/>
	</defs>
	<clipPath id="SVGID_00000021120425771017718790000009598564811961894274_">
		<use xlink:href="#SVGID_1_"  style="overflow:visible;"/>
	</clipPath>
	<g style="clip-path:url(#SVGID_00000021120425771017718790000009598564811961894274_);">
		<path class="st1" d="M344.4,562.8c154.9,0,280.4-122.4,280.4-273.4S499.3,16,344.4,16C189.6,16,64,138.4,64,289.4
			S189.6,562.8,344.4,562.8z"/>
		<path class="st2" d="M116.3,138.5c5.5,0,9.9-4.3,9.9-9.6c0-5.3-4.4-9.6-9.9-9.6c-5.5,0-9.9,4.3-9.9,9.6
			C106.4,134.2,110.9,138.5,116.3,138.5z"/>
		<path class="st3" d="M634.3,299.8c0,5-4.2,9.1-9.4,9.1c-5.2,0-9.4-4.1-9.4-9.1c0-5,4.2-9.1,9.4-9.1
			C630.1,290.7,634.3,294.8,634.3,299.8z"/>
		<path class="st4" d="M350.9,495.2c115.5,0,209.2-91.3,209.2-204c0-112.6-93.7-204-209.2-204s-209.2,91.3-209.2,204
			C141.7,403.9,235.4,495.2,350.9,495.2z"/>
		<path class="st2" d="M556.6,339.5c4.1,0,7.4-3.2,7.4-7.2c0-4-3.3-7.2-7.4-7.2c-4.1,0-7.4,3.2-7.4,7.2
			C549.2,336.3,552.5,339.5,556.6,339.5z"/>
		<path class="st3" d="M163.8,367.9c0,3.7-3.1,6.7-6.9,6.7c-3.8,0-6.9-3-6.9-6.7c0-3.7,3.1-6.7,6.9-6.7
			C160.7,361.2,163.8,364.2,163.8,367.9z"/>
		<path class="st5" d="M257.2,115.9c4.1,0,7.4-3.2,7.4-7.2c0-4-3.3-7.2-7.4-7.2c-4.1,0-7.4,3.2-7.4,7.2
			C249.9,112.6,253.2,115.9,257.2,115.9z"/>
		<g>
			<path class="st2" d="M459.8,517.1H218.2c-10.5,0-18.2-8.3-17.2-18.5l41.2-418.3c1-10.2,10.3-18.5,20.8-18.5h241.6
				c10.5,0,18.2,8.3,17.2,18.5l-41.2,418.3C479.6,508.8,470.3,517.1,459.8,517.1z"/>
		</g>
		
			<linearGradient id="SVGID_00000103966743454693434310000012428619315691159702_" gradientUnits="userSpaceOnUse" x1="273.2644" y1="734.4545" x2="484.6185" y2="-351.9" gradientTransform="matrix(1 0 0 -1 0 658)">
			<stop  offset="0" style="stop-color:#FFFFFF"/>
			<stop  offset="1" style="stop-color:#94B9FF"/>
		</linearGradient>
		<path style="fill:url(#SVGID_00000103966743454693434310000012428619315691159702_);" d="M442.8,517.1H201.2
			c-10.5,0-18.2-8.3-17.2-18.5l41.2-418.3c1-10.2,10.3-18.5,20.8-18.5h241.6c10.5,0,18.2,8.3,17.2,18.5l-41.2,418.3
			C462.6,508.8,453.3,517.1,442.8,517.1z"/>
		<path class="st7" d="M433.6,503.2H213.1c-9.7,0-16.8-7.7-15.9-17.1L236,92.8c0.9-9.5,9.6-17.1,19.3-17.1h220.5
			c9.7,0,16.8,7.7,15.9,17.1L452.9,486C452,495.5,443.4,503.2,433.6,503.2z"/>
		
			<linearGradient id="SVGID_00000010312671655090257560000011016502823610814094_" gradientUnits="userSpaceOnUse" x1="335.2726" y1="556.7939" x2="355.7306" y2="230.14" gradientTransform="matrix(1 0 0 -1 0 658)">
			<stop  offset="0" style="stop-color:#FFFFFF"/>
			<stop  offset="1" style="stop-color:#94B9FF"/>
		</linearGradient>
		<path style="fill:url(#SVGID_00000010312671655090257560000011016502823610814094_);" d="M451.3,254.6l-236.6-0.2
			c-1,0-1.9-0.1-2.8-0.5c-0.9-0.4-1.7-0.9-2.3-1.6c-0.7-0.7-1.2-1.5-1.5-2.4c-0.3-0.9-0.4-1.8-0.3-2.8L220.6,109
			c0.2-2,1.2-3.8,2.7-5.2c1.5-1.3,3.5-2.1,5.6-2.1l236.6,0.2c1,0,1.9,0.2,2.8,0.5c0.9,0.4,1.7,0.9,2.3,1.6c0.7,0.7,1.2,1.5,1.5,2.4
			c0.3,0.9,0.4,1.8,0.3,2.8l-12.8,138.1c-0.2,2-1.2,3.8-2.7,5.2C455.4,253.8,453.4,254.5,451.3,254.6z"/>
		
			<linearGradient id="SVGID_00000033332208029108713890000008264287326183683766_" gradientUnits="userSpaceOnUse" x1="392.6252" y1="388.8175" x2="426.1062" y2="104.4575" gradientTransform="matrix(1 0 0 -1 0 658)">
			<stop  offset="0" style="stop-color:#FFFFFF"/>
			<stop  offset="1" style="stop-color:#94B9FF"/>
		</linearGradient>
		<path style="fill:url(#SVGID_00000033332208029108713890000008264287326183683766_);" d="M443.9,403.3h-100
			c-0.7,0-1.5-0.1-2.1-0.4c-0.7-0.3-1.3-0.7-1.8-1.2c-0.5-0.5-0.9-1.2-1.1-1.9c-0.2-0.7-0.3-1.4-0.2-2.1l12.1-123.1
			c0.2-1.5,0.9-2.9,2.1-4c1.2-1,2.7-1.6,4.2-1.7h100c0.7,0,1.5,0.1,2.1,0.4c0.7,0.3,1.3,0.7,1.8,1.2c0.5,0.5,0.9,1.2,1.1,1.8
			c0.2,0.7,0.3,1.4,0.2,2.1l-12.1,123.1c-0.2,1.5-0.9,2.9-2.1,4C447,402.7,445.5,403.3,443.9,403.3z"/>
		<path class="st10" d="M420,335.4c11.3-10.5,12.5-27.1,2.7-37.1c-9.8-10-26.8-9.6-38.1,0.9c-11.3,10.5-12.5,27.1-2.7,37.1
			C391.7,346.3,408.8,345.9,420,335.4z"/>
		<path class="st11" d="M389.7,341.5c-9.4-3.9-15.3-13.3-14.2-24.2c1.4-14.5,14.6-26.2,29.5-26.2"/>
		<path class="st12" d="M387.5,364.1H408"/>
		<path class="st12" d="M385.2,386.8h20.6"/>
		<path class="st13" d="M375.4,375.3h42.5"/>
		<path class="st14" d="M321.6,403.3h-100c-0.7,0-1.5-0.1-2.1-0.4c-0.7-0.3-1.3-0.7-1.8-1.2c-0.5-0.5-0.9-1.2-1.1-1.9
			c-0.2-0.7-0.3-1.4-0.2-2.1l12.1-123.1c0.2-1.5,0.9-2.9,2.1-4s2.7-1.6,4.2-1.7h100c0.7,0,1.5,0.1,2.1,0.4c0.7,0.3,1.3,0.7,1.8,1.2
			c0.5,0.5,0.9,1.2,1.1,1.8c0.2,0.7,0.3,1.4,0.2,2.1l-12.1,123.1c-0.2,1.5-0.9,2.9-2.1,4C324.7,402.7,323.2,403.3,321.6,403.3z"/>
		<path class="st10" d="M297.8,335.4c11.3-10.5,12.5-27.1,2.7-37.1c-9.8-10-26.8-9.6-38.1,0.9c-11.3,10.5-12.5,27.1-2.7,37.1
			C269.4,346.3,286.5,345.9,297.8,335.4z"/>
		<path class="st11" d="M307,317.3c-1.4,14.5-14.6,26.2-29.5,26.2c-14.8,0-25.7-11.7-24.3-26.2c1.4-14.5,14.6-26.2,29.5-26.2"/>
		<path class="st12" d="M265.2,364.1h20.6"/>
		<path class="st12" d="M262.9,386.8h20.6"/>
		<path class="st13" d="M253.1,375.3h42.5"/>
		
			<linearGradient id="SVGID_00000009571839833622357600000007623050231163329172_" gradientUnits="userSpaceOnUse" x1="326.5197" y1="245.06" x2="332.4128" y2="77.683" gradientTransform="matrix(1 0 0 -1 0 658)">
			<stop  offset="0" style="stop-color:#FFFFFF"/>
			<stop  offset="1" style="stop-color:#94B9FF"/>
		</linearGradient>
		<path style="fill:url(#SVGID_00000009571839833622357600000007623050231163329172_);" d="M435.5,491.4H212.6c-0.7,0-1.4-0.1-2-0.4
			c-0.6-0.3-1.2-0.7-1.7-1.2c-0.5-0.5-0.8-1.1-1-1.8c-0.2-0.6-0.3-1.3-0.2-2l6.7-67.5c0.2-1.4,0.9-2.8,2-3.8c1.1-1,2.5-1.5,4-1.6
			h222.9c0.7,0,1.4,0.1,2,0.4c0.6,0.3,1.2,0.7,1.7,1.2c0.5,0.5,0.8,1.1,1,1.8c0.2,0.6,0.3,1.3,0.2,2l-6.7,67.5
			c-0.2,1.4-0.9,2.8-2,3.8C438.4,490.8,437,491.4,435.5,491.4z"/>
		<path class="st11" d="M228.1,475.8l3.1-31.9"/>
		<path class="st11" d="M251.2,453.4l-2.2,22.3"/>
		<path class="st11" d="M271.3,461.1l-1.5,14.7"/>
		<path class="st11" d="M294.7,435.6l-4,40.2"/>
		<path class="st11" d="M313.1,461.1l-1.4,14.7"/>
		<path class="st11" d="M336.3,437.4l-3.8,38.4"/>
		<path class="st11" d="M354.9,459.8l-1.6,15.9"/>
		<path class="st11" d="M375,467.3l-0.8,8.5"/>
		<path class="st11" d="M398.2,443.9l-3.1,31.9"/>
		<path class="st11" d="M420.3,431.7l-4.3,44"/>
		<path class="st16" d="M233.9,233.4l12.5,19.1c0.6,0.9,0.8,1.9,0.5,2.9c-0.2,1-0.8,1.9-1.7,2.4l-2,1.3c-3.4,2.1-7.5,3-11.5,2.5
			s-7.7-2.5-10.3-5.5l-16.6-18.9L233.9,233.4z"/>
		<path class="st17" d="M224.4,240.7c0,0,4.6,15.5,14,20.5c2.4-0.9,4.7-2,6.9-3.4l-10.4-17.1"/>
		<path class="st18" d="M10.1,310.6l49.2-23c4.6-2.2,8.6-5.6,11.3-9.8l47.5-72.9c3-4.5,7.2-8.1,12.3-10.2l68.5-28.8L184.2,274
			l-0.3,4c0,0-18.1,45.7-62.5,62.3l-71,42.3L10.1,310.6z"/>
		<path class="st17" d="M63.6,285c0,0,23.3,56.6,57.9,55.2l-22.1,13.2c0,0-75-13.6-46.9-62.8L63.6,285z"/>
		<path class="st17" d="M188.3,185.9c0,0-24.2,14.3-22.9,47.5l29.1-10.6L188.3,185.9z"/>
		<path class="st16" d="M249.1,233.4l12.5,19.1c0.6,0.9,0.8,1.9,0.5,2.9c-0.2,1-0.8,1.9-1.7,2.4l-2,1.3c-3.4,2.1-7.5,3-11.5,2.5
			c-4-0.6-7.7-2.5-10.3-5.5L220,237.2L249.1,233.4z"/>
		<path class="st2" d="M434.3,240.9l-236.6-0.2c-1,0-1.9-0.1-2.8-0.5c-0.9-0.4-1.7-0.9-2.4-1.6c-0.7-0.7-1.2-1.5-1.5-2.4
			c-0.3-0.9-0.4-1.8-0.3-2.8l12.8-138.1c0.2-2,1.2-3.8,2.7-5.2c1.5-1.3,3.5-2.1,5.6-2.1l236.6,0.2c1,0,1.9,0.2,2.8,0.5
			c0.9,0.4,1.7,0.9,2.3,1.6c0.7,0.7,1.2,1.5,1.5,2.4c0.3,0.9,0.4,1.8,0.3,2.8l-12.8,138.1c-0.2,2-1.2,3.8-2.7,5.2
			C438.3,240.2,436.3,240.9,434.3,240.9z"/>
		<path class="st19" d="M213.4,170c0,0,21.2-4.2,27,5.5c5.7,9.7,10.6,28,25.9,25.6c15.2-2.4,26.8-50.1,41.8-49.6
			c15,0.4,9.7,31.7,26,32.1s13.4-17.5,24.2-17c13.2,0.6,8.3,37.7,25.4,38.1c17.2,0.4,20-49,45.9-48.1"/>
		<path class="st20" d="M225.4,111.2l41.6,0"/>
		<path class="st21" d="M223.7,129.8l86,0.1"/>
		<path class="st16" d="M143.2,240.2l30.3-13l31-20.7c8.2-5.4,25.2-7.9,31.3-0.3c6.2,7.7-0.8,22.9-8.3,29.3L198.9,260L184,278
			L143.2,240.2z"/>
		<path class="st22" d="M204.9,214.4c0,0,4.1,15.4,14.7,18.1l11.3-9.3c1.1-0.8,2.1-1.9,2.8-3.1c0.7-1.2,1.2-2.5,1.3-3.9
			c0.2-1.4,0-2.8-0.4-4.1c-0.4-1.3-1.1-2.6-2-3.6c-1.6-1.9-3.8-3.1-6.3-3.5c-2.5-0.4-5,0-7.1,1.3L204.9,214.4z"/>
		<g>
			<path class="st14" d="M61.1,285.7c0,0-5.9,41,45.3,64.5c0,0-36.8,32.9-50.9,38.4c-14.2,5.5-67.4-51-48.5-83
				C12.3,296.5,61.1,285.7,61.1,285.7z"/>
		</g>
		<path class="st17" d="M255.1,242.5c0,0-19.9,0.4-26.9,3.9l-5-5.7l30.8,0L255.1,242.5z"/>
		<path class="st14" d="M622.4,240.9H480.5c-10.7,0-18.6-8.4-17.6-18.9l19-209.5C482.9,2.1,492.3-6.3,503-6.3h141.8
			c10.7,0,18.6,8.4,17.6,18.9l-19,209.5C642.5,232.5,633,240.9,622.4,240.9z"/>
		<path class="st7" d="M602.1,112c22.5-20.9,24.7-54.2,5.1-74.2c-19.7-20-53.8-19.3-76.3,1.6c-22.5,20.9-24.7,54.2-5.1,74.2
			C545.4,133.7,579.6,132.9,602.1,112z"/>
		
			<linearGradient id="SVGID_00000085217721365087122040000014301791140510288021_" gradientUnits="userSpaceOnUse" x1="591.8688" y1="580.7913" x2="596.8978" y2="513.2496" gradientTransform="matrix(1 0 0 -1 0 658)">
			<stop  offset="0" style="stop-color:#FFFFFF"/>
			<stop  offset="1" style="stop-color:#94B9FF"/>
		</linearGradient>
		<path style="fill:url(#SVGID_00000085217721365087122040000014301791140510288021_);" d="M569.5,77.3l35.6,31.7
			c0,0,8.1-8.5,10.5-14.6L569.5,77.3z"/>
		<path class="st2" d="M571.8,16.5l-5.1,55.7c-0.1,1,0.1,2,0.6,2.9c0.5,0.9,1.2,1.7,2.1,2.2l48.3,26.2
			C617.8,103.5,646.5,25.5,571.8,16.5z"/>
		<path class="st24" d="M496.2,166.8H555"/>
		<path class="st24" d="M491.9,214.1h58.8"/>
		<path class="st25" d="M494.1,190.2h121.4"/>
		<path class="st18" d="M447.9,395.3c0,0,18.9-4.9,29,5.7c0,0,18.1-3.2,25.5,6.6c0,0,16.1,0.9,20.7,7.3c3.9,0.5,7.5,2,10.6,4.4
			c3.1,2.3,5.5,5.4,6.9,9c4.4,10.1,0.7,68.5-3.7,89.4c-1.1,5.2-0.7,10.6,1.1,15.7l11.1,31.1l-76.8,31.3l-18.2-46.4
			c0,0-22.2-34.8-25.4-41c-3.2-6.2,2.2-57.5-8.6-89.6L447.9,395.3z"/>
		<path class="st17" d="M464,574.5l-2.2-5.6c0,0,39.9-2.5,76.3-35.6l3.5,9.8c0,0-4.5,20.2-25,29.7C496.1,582.2,464,574.5,464,574.5z
			"/>
		<path class="st14" d="M464,574.5c0,0,48.3,4.3,77.6-31.5c0,0,10.8,5.5,27.4,46c5.1,12.4-80.1,56.7-93.8,38.3
			C475.1,627.3,463.2,602.8,464,574.5z"/>
		<path class="st16" d="M424.8,438.1c0,0-1.7,8.6-9.5,8.6c-5.1,0-27.4-6.6-42.3-11.1c-4-1.2-8.4-1.2-12.4,0c-4,1.2-7.6,3.7-10.2,6.9
			l-0.9,1.1c-0.4,0.6-0.8,1.2-1,1.9c-0.2,0.7-0.2,1.4-0.1,2.1c0.1,0.7,0.4,1.4,0.8,2c0.4,0.6,0.9,1.1,1.5,1.5
			c12.6,8.6,46.5,31.8,50.9,36c5.3,5.2,35.1,34.4,35.1,34.4L424.8,438.1z"/>
		<path class="st17" d="M423,429.5c0,0,16.1,21.2,13.7,25.9c-2.4,4.6-27.3-9.6-27.3-9.6S429.5,450.9,423,429.5z"/>
		<path class="st16" d="M420.1,418.8L393,338.6c-0.9-2.7-1.3-5.7-1-8.5c0.2-2.9,1.1-5.7,2.5-8.3c1.4-2.6,3.3-4.8,5.6-6.7
			c2.3-1.8,4.9-3.2,7.8-4c2.3-0.7,4.8-0.5,7,0.5c2.2,1,4,2.8,4.9,4.9l38,85.1L420.1,418.8z"/>
		<path class="st22" d="M408.3,384c0.8,1.2,1.8,2.3,3,3.1c1.2,0.8,2.6,1.4,4,1.7"/>
		<path class="st22" d="M418.1,343c3.3-1.4,6.9-3.4,8.5-5.7l-10.1-23.3c-0.2-0.5-0.5-1-0.9-1.3c-0.4-0.4-0.9-0.7-1.4-0.8
			c-0.5-0.2-1.1-0.2-1.6-0.2c-0.6,0.1-1.1,0.2-1.6,0.5c-3.6,2-8.3,5.7-8.5,10.9l6.8,16.5c0.3,0.8,0.8,1.5,1.5,2.2
			c0.6,0.6,1.4,1.1,2.2,1.4c0.8,0.3,1.7,0.5,2.6,0.5C416.4,343.5,417.2,343.3,418.1,343z"/>
		<path class="st22" d="M454.6,394.8l9.3,20"/>
		<path class="st22" d="M477.3,401.4c4.7,6.6,7.3,14.5,7.3,22.6"/>
		<path class="st22" d="M502.9,407.9c0,0,4.7,10.5,5.1,18.8"/>
		<path class="st22" d="M523.8,415.5c1.9,4.4,2.6,9.2,2.1,14"/>
		<path class="st22" d="M370.6,461.1c0,0,5.6-6.9,3.7-10.3c-1.9-3.5-10.4-8.3-15.3-7.8c-2.3,0.3-4.6,1.1-6.7,2.2
			c-0.4,0.2-0.7,0.5-0.9,0.8c-0.2,0.3-0.4,0.7-0.4,1.2c0,0.4,0.1,0.8,0.3,1.2c0.2,0.4,0.5,0.7,0.8,0.9L370.6,461.1z"/>
		<g>
			<path class="st14" d="M275,545H105.6c-0.7,0-1.4-0.1-2-0.4c-0.6-0.3-1.2-0.7-1.7-1.2c-0.5-0.5-0.8-1.1-1-1.8
				c-0.2-0.7-0.3-1.3-0.2-2l6.7-67.5c0.2-1.4,0.9-2.8,2-3.8c1.1-1,2.5-1.5,4-1.6h169.4c0.7,0,1.4,0.1,2,0.4c0.6,0.3,1.2,0.7,1.7,1.2
				c0.5,0.5,0.8,1.1,1,1.8c0.2,0.7,0.3,1.3,0.2,2l-6.7,67.5c-0.2,1.4-0.9,2.8-2,3.8C277.9,544.4,276.4,545,275,545z"/>
		</g>
		<path class="st26" d="M121.5,484.5H226H121.5z"/>
		<path class="st27" d="M121.5,484.5H226"/>
		<path class="st11" d="M121.5,484.5h72.6"/>
		<path class="st26" d="M119.9,505.9h104.5H119.9z"/>
		<path class="st27" d="M119.9,505.9h104.5"/>
		<path class="st11" d="M119.9,505.9h43.4"/>
		<path class="st26" d="M116.5,527.4H221H116.5z"/>
		<path class="st27" d="M116.5,527.4H221"/>
		<path class="st11" d="M116.5,527.4h26.6"/>
		<path class="st7" d="M263,490.6c3.5,0,6.2-2.7,6.2-6.1s-2.8-6.1-6.2-6.1c-3.4,0-6.2,2.7-6.2,6.1S259.6,490.6,263,490.6z"/>
		<path class="st7" d="M261,511.1c3.4,0,6.2-2.7,6.2-6.1c0-3.4-2.8-6.1-6.2-6.1c-3.5,0-6.2,2.7-6.2,6.1
			C254.7,508.4,257.5,511.1,261,511.1z"/>
		<path class="st7" d="M258.7,533.5c3.4,0,6.2-2.7,6.2-6.1c0-3.4-2.8-6.1-6.2-6.1c-3.4,0-6.2,2.7-6.2,6.1
			C252.5,530.8,255.3,533.5,258.7,533.5z"/>
	</g>
</g>
</svg>
